<svg height="20pt" viewBox="0 0 480.0002 480" width="30pt" xmlns="http://www.w3.org/2000/svg"><path d="m480 240c0 132.546875-107.453125 240-240 240s-240-107.453125-240-240 107.453125-240 240-240 240 107.453125 240 240zm0 0" fill="#f2f2f2"/><path d="m448.863281 121.832031v.078125c-3.054687-5.40625-6.238281-10.71875-9.695312-15.847656l-17.824219 75.753906-93.917969 31.304688-78.859375-63.089844v-92.925781l89.921875-35.953125-1.824219-.800782c-2-.863281-4.007812-1.710937-6.023437-2.542968-57.875-23.601563-122.667969-23.707032-180.617187-.289063-2.363282.960938-4.699219 1.949219-7.007813 2.96875l-1.960937.886719 90.378906 35.746094v92.910156l-78.859375 63.089844-93.894531-31.296875-17.824219-75.761719c-3.113281 4.617188-6 9.394531-8.800781 14.234375v-.074219c-21.03125 36.390625-32.0898442 77.683594-32.054688 119.714844 0 7.527344.390625 14.957031 1.082031 22.3125l53.183594-63.851562 92.847656 30.945312 23.582031 94.335938-45.894531 61.199218-85.410156-13.488281c1.480469 2.242187 3.042969 4.417969 4.585937 6.601563l-.320312-.046876c30.835938 43.863282 75.445312 76.164063 126.742188 91.765626l-.175782-.328126c6.546875 2 13.167969 3.808594 19.9375 5.242188l-51.152344-80.082031 45.296876-60.390625h111.429687l45.953125 60.6875-44.605469 78.113281c5.710938-1.402344 11.324219-3.066406 16.878907-4.863281l-.152344.292968c49.558594-16.0625 92.5625-47.785156 122.535156-90.398437l-.320312.046875c1.542968-2.183594 3.105468-4.359375 4.585937-6.597656l-85.007813 13.367187-46.289062-61.121093 23.574219-94.3125 92.847656-30.96875 53.1875 63.824218c.46875-5.101562.742187-10.261718.902344-15.4375.0625-2.273437.175781-4.527344.175781-6.808594.042969-41.414062-10.6875-82.128906-31.136719-118.144531zm0 0"/><path d="m240 480c-132.546875 0-240-107.453125-240-240s107.453125-240 240-240 240 107.453125 240 240c-.148438 132.484375-107.515625 239.851562-240 240zm0-464c-123.710938 0-224 100.289062-224 224s100.289062 224 224 224 224-100.289062 224-224c-.140625-123.652344-100.347656-223.859375-224-224zm0 0"/></svg>